<svg width="320" height="180" viewBox="0 0 320 180" xmlns="http://www.w3.org/2000/svg">
  <defs>
    <linearGradient id="bgGrad" x1="0%" y1="0%" x2="100%" y2="100%">
      <stop offset="0%" stop-color="#0ea5e9"/>
      <stop offset="100%" stop-color="#1d4ed8"/>
    </linearGradient>
    <radialGradient id="orbGrad" cx="50%" cy="50%" r="60%">
      <stop offset="0%" stop-color="#ffffff"/>
      <stop offset="100%" stop-color="#93c5fd"/>
    </radialGradient>
    <symbol id="badge" viewBox="0 0 40 40">
      <path d="M20 2 L24.9 14.8 L38 15.6 L27.8 23.8 L31.2 36.4 L20 29 L8.8 36.4 L12.2 23.8 L2 15.6 L15.1 14.8 Z" fill="#facc15"/>
      <circle cx="20" cy="20" r="4.5" fill="#0f172a"/>
    </symbol>
  </defs>

  <rect x="0" y="0" width="320" height="180" fill="url(#bgGrad)"/>
  <rect x="16" y="16" width="288" height="148" rx="18" fill="#0f172a" opacity="0.78"/>

  <circle cx="90" cy="90" r="36" fill="url(#orbGrad)"/>
  <use href="#badge" x="130" y="40" width="40" height="40"/>
  <use href="#badge" x="178" y="94" width="28" height="28"/>

  <path d="M220 132 C238 82, 286 82, 304 132" fill="none" stroke="#f8fafc" stroke-width="10"/>
</svg>
